<svg width="125" height="41" viewBox="0 0 125 41" fill="none" xmlns="http://www.w3.org/2000/svg">
<path d="M115.046 0.00013325H9.95984C9.57679 0.00013325 9.19833 0.00013325 8.8163 0.00218325C8.49649 0.00423325 8.17924 0.0101885 7.85637 0.0152007C7.15494 0.0233001 6.45516 0.0838514 5.76311 0.196328C5.07204 0.311254 4.40261 0.527922 3.77747 0.839003C3.1531 1.15272 2.58259 1.56035 2.08664 2.04713C1.58809 2.53254 1.17251 3.0936 0.855886 3.70875C0.538382 4.32267 0.318225 4.98055 0.203016 5.65965C0.0867125 6.3379 0.0241284 7.02397 0.0158256 7.7117C0.00613175 8.02596 0.00510805 8.34128 0 8.65558V32.3477C0.00510805 32.666 0.00613175 32.9743 0.0158256 33.2926C0.0241309 33.9803 0.086715 34.6664 0.203016 35.3446C0.317907 36.0241 0.538077 36.6823 0.855886 37.2965C1.17237 37.9097 1.58801 38.4684 2.08664 38.9512C2.58071 39.4401 3.15159 39.848 3.77747 40.1593C4.4026 40.4712 5.07196 40.6892 5.76311 40.8059C6.45528 40.9175 7.15499 40.978 7.85637 40.9871C8.17924 40.9941 8.49649 40.9981 8.8163 40.9981C9.19832 41.0001 9.57681 41.0001 9.95984 41.0001H115.046C115.421 41.0001 115.803 41.0001 116.178 40.9981C116.496 40.9981 116.823 40.9941 117.141 40.9871C117.841 40.9785 118.54 40.9179 119.23 40.8059C119.924 40.6884 120.595 40.4705 121.224 40.1593C121.849 39.8478 122.419 39.4399 122.913 38.9512C123.41 38.4666 123.827 37.9082 124.147 37.2965C124.463 36.6819 124.681 36.0237 124.794 35.3446C124.91 34.6663 124.975 33.9804 124.988 33.2926C124.992 32.9743 124.992 32.666 124.992 32.3477C125 31.9753 125 31.605 125 31.2266V9.77467C125 9.3993 125 9.02694 124.992 8.65558C124.992 8.34128 124.992 8.02596 124.988 7.71166C124.975 7.02387 124.91 6.33795 124.794 5.65961C124.68 4.9809 124.462 4.32307 124.147 3.70871C123.502 2.47571 122.48 1.47206 121.224 0.838911C120.595 0.52859 119.924 0.31198 119.23 0.196236C118.54 0.0832636 117.841 0.0226912 117.141 0.0150572C116.823 0.0100552 116.496 0.00404875 116.178 0.00205C115.803 0 115.421 0.00013325 115.046 0.00013325Z" fill="#A6A6A6"/>
<path d="M8.82144 40.1031C8.50318 40.1031 8.1926 40.0991 7.87683 40.0921C7.22269 40.0838 6.57007 40.0279 5.92434 39.925C5.32223 39.8232 4.73895 39.6339 4.19373 39.3634C3.65351 39.095 3.16078 38.7432 2.73443 38.3213C2.30191 37.9045 1.94181 37.4209 1.66842 36.8899C1.39201 36.3555 1.20072 35.7826 1.1012 35.1913C0.993742 34.5559 0.9356 33.9134 0.92728 33.2694C0.920657 33.0533 0.911987 32.3335 0.911987 32.3335V8.65542C0.911987 8.65542 0.921222 7.94673 0.927332 7.73852C0.935298 7.09552 0.993102 6.45405 1.10024 5.81965C1.19994 5.22671 1.39138 4.65219 1.66794 4.116C1.94033 3.58537 2.29843 3.10148 2.72834 2.6831C3.15778 2.26074 3.65208 1.90709 4.19322 1.63507C4.73718 1.36537 5.31936 1.17743 5.92026 1.07753C6.56811 0.973558 7.22299 0.917347 7.8794 0.909366L8.82195 0.896851H116.173L117.127 0.909868C117.777 0.917452 118.426 0.973162 119.068 1.07652C119.675 1.17768 120.263 1.36693 120.814 1.63807C121.898 2.18629 122.78 3.05362 123.336 4.1185C123.608 4.65099 123.797 5.22082 123.895 5.80864C124.004 6.44824 124.064 7.09476 124.077 7.74303C124.08 8.03331 124.08 8.34512 124.08 8.65542C124.088 9.0398 124.088 9.40565 124.088 9.77451V31.2264C124.088 31.5988 124.088 31.9621 124.08 32.3285C124.08 32.6618 124.08 32.9672 124.076 33.2814C124.064 33.9181 124.004 34.5531 123.897 35.1813C123.8 35.7768 123.61 36.3542 123.333 36.893C123.058 37.4182 122.7 37.8976 122.272 38.3134C121.846 38.7375 121.352 39.0914 120.811 39.3614C120.262 39.6341 119.674 39.824 119.068 39.925C118.422 40.0284 117.77 40.0843 117.116 40.0921C116.81 40.0991 116.489 40.1031 116.178 40.1031L115.046 40.1052L8.82144 40.1031Z" fill="black"/>
<path d="M25.8734 20.8081C25.8846 19.9526 26.1162 19.1138 26.5466 18.3697C26.977 17.6256 27.5922 17.0004 28.335 16.5523C27.8632 15.891 27.2406 15.3468 26.5169 14.9628C25.7932 14.5789 24.9882 14.3659 24.1659 14.3406C22.4118 14.16 20.7113 15.3706 19.8174 15.3706C18.9062 15.3706 17.53 14.3586 16.048 14.3885C15.0894 14.4189 14.1552 14.6924 13.3363 15.1824C12.5175 15.6724 11.842 16.3622 11.3756 17.1846C9.35537 20.6167 10.8623 25.6608 12.7975 28.4351C13.7657 29.7935 14.8973 31.311 16.378 31.2572C17.8269 31.1982 18.368 30.3506 20.117 30.3506C21.8497 30.3506 22.3574 31.2572 23.8681 31.223C25.4229 31.1982 26.4024 29.8585 27.3367 28.4871C28.0324 27.5191 28.5677 26.4493 28.9228 25.3173C28.0195 24.9424 27.2487 24.3149 26.7064 23.5131C26.1642 22.7112 25.8745 21.7705 25.8734 20.8081Z" fill="white"/>
<path d="M23.02 12.5161C23.8677 11.5176 24.2853 10.2341 24.1842 8.93823C22.8891 9.07171 21.6928 9.67908 20.8336 10.6393C20.4135 11.1084 20.0918 11.6542 19.8868 12.2454C19.6818 12.8366 19.5976 13.4616 19.6389 14.0848C20.2867 14.0913 20.9275 13.9535 21.5132 13.6818C22.0989 13.4101 22.6141 13.0115 23.02 12.5161Z" fill="white"/>
<path d="M44.1887 27.8181H39.2442L38.0568 31.2585H35.9625L40.6458 18.53H42.8217L47.505 31.2585H45.3751L44.1887 27.8181ZM39.7563 26.2306H43.6756L41.7435 20.6471H41.6895L39.7563 26.2306Z" fill="white"/>
<path d="M57.6195 26.6189C57.6195 29.5027 56.0464 31.3555 53.6727 31.3555C53.0713 31.3863 52.4733 31.2504 51.947 30.9633C51.4208 30.6761 50.9876 30.2494 50.697 29.7319H50.6521V34.3284H48.7108V21.9783H50.5899V23.5218H50.6256C50.9295 23.0068 51.3701 22.5823 51.9003 22.2934C52.4306 22.0045 53.0307 21.862 53.637 21.8812C56.0372 21.8812 57.6195 23.743 57.6195 26.6189ZM55.6241 26.6189C55.6241 24.74 54.6346 23.5048 53.1248 23.5048C51.6416 23.5048 50.6439 24.766 50.6439 26.6189C50.6439 28.4887 51.6416 29.7409 53.1248 29.7409C54.6346 29.7409 55.6241 28.5147 55.6241 26.6189Z" fill="white"/>
<path d="M68.0286 26.6189C68.0286 29.5027 66.4556 31.3555 64.0818 31.3555C63.4805 31.3863 62.8825 31.2504 62.3562 30.9633C61.83 30.6761 61.3968 30.2494 61.1062 29.7319H61.0613V34.3284H59.12V21.9783H60.999V23.5218H61.0347C61.3387 23.0068 61.7792 22.5823 62.3095 22.2934C62.8397 22.0045 63.4399 21.862 64.0461 21.8812C66.4464 21.8812 68.0286 23.743 68.0286 26.6189ZM66.0333 26.6189C66.0333 24.74 65.0438 23.5048 63.534 23.5048C62.0508 23.5048 61.0531 24.766 61.0531 26.6189C61.0531 28.4887 62.0508 29.7409 63.534 29.7409C65.0438 29.7409 66.0333 28.5147 66.0333 26.6189Z" fill="white"/>
<path d="M74.9082 27.712C75.0521 28.9742 76.3017 29.803 78.0094 29.803C79.6456 29.803 80.8228 28.9742 80.8228 27.836C80.8228 26.8481 80.1128 26.2565 78.4317 25.8511L76.7505 25.4537C74.3686 24.8892 73.2628 23.7961 73.2628 22.0224C73.2628 19.8262 75.2132 18.3177 77.9828 18.3177C80.7238 18.3177 82.6029 19.8262 82.6661 22.0224H80.7065C80.5892 20.7521 79.5191 19.9854 77.9553 19.9854C76.3914 19.9854 75.3213 20.7611 75.3213 21.8902C75.3213 22.7901 76.0048 23.3196 77.6768 23.725L79.1059 24.0693C81.7674 24.6869 82.8732 25.736 82.8732 27.5978C82.8732 29.9791 80.9401 31.4705 77.8655 31.4705C74.9888 31.4705 73.0465 30.0141 72.921 27.7119L74.9082 27.712Z" fill="white"/>
<path d="M87.0628 19.7822V21.9784H88.8613V23.4868H87.0628V28.6028C87.0628 29.3976 87.423 29.768 88.2135 29.768C88.427 29.7643 88.6402 29.7496 88.8521 29.7239V31.2234C88.4967 31.2885 88.1354 31.318 87.7739 31.3114C85.8591 31.3114 85.1124 30.6058 85.1124 28.806V23.4868H83.7373V21.9784H85.1124V19.7822H87.0628Z" fill="white"/>
<path d="M89.9028 26.6189C89.9028 23.699 91.6554 21.8643 94.3882 21.8643C97.1303 21.8643 98.8747 23.699 98.8747 26.6189C98.8747 29.5468 97.1395 31.3735 94.3882 31.3735C91.638 31.3735 89.9028 29.5467 89.9028 26.6189ZM96.8967 26.6189C96.8967 24.6159 95.9612 23.4338 94.3882 23.4338C92.8152 23.4338 91.8808 24.625 91.8808 26.6189C91.8808 28.6299 92.8152 29.803 94.3882 29.803C95.9612 29.803 96.8967 28.6299 96.8967 26.6189Z" fill="white"/>
<path d="M100.475 21.9784H102.327V23.5579H102.372C102.497 23.0646 102.791 22.6286 103.206 22.3233C103.62 22.0179 104.129 21.8619 104.646 21.8813C104.87 21.8805 105.093 21.9043 105.312 21.9523V23.7341C105.029 23.6494 104.735 23.6105 104.439 23.619C104.157 23.6077 103.876 23.6565 103.615 23.762C103.354 23.8674 103.12 24.0271 102.927 24.2299C102.735 24.4327 102.59 24.674 102.502 24.9371C102.414 25.2002 102.385 25.4789 102.416 25.754V31.2584H100.475L100.475 21.9784Z" fill="white"/>
<path d="M114.262 28.5328C114.001 30.2174 112.329 31.3735 110.19 31.3735C107.438 31.3735 105.731 29.5648 105.731 26.6629C105.731 23.7521 107.448 21.8643 110.108 21.8643C112.725 21.8643 114.37 23.628 114.37 26.4417V27.0944H107.69V27.2095C107.66 27.551 107.703 27.8951 107.818 28.2188C107.933 28.5425 108.117 28.8385 108.358 29.0871C108.599 29.3358 108.89 29.5313 109.214 29.6607C109.538 29.7902 109.885 29.8506 110.235 29.838C110.693 29.8802 111.154 29.776 111.547 29.5408C111.941 29.3056 112.246 28.9521 112.419 28.5328L114.262 28.5328ZM107.7 25.7631H112.428C112.445 25.456 112.398 25.1487 112.288 24.8604C112.179 24.5722 112.01 24.3092 111.792 24.0881C111.575 23.8669 111.313 23.6923 111.023 23.5753C110.733 23.4582 110.421 23.4012 110.108 23.4078C109.792 23.4059 109.479 23.4655 109.186 23.5831C108.894 23.7007 108.628 23.874 108.404 24.093C108.18 24.312 108.002 24.5723 107.881 24.8589C107.761 25.1456 107.699 25.4529 107.7 25.7631Z" fill="white"/>
<path d="M39.5128 8.94932C39.9198 8.92066 40.3282 8.981 40.7086 9.12596C41.0889 9.27093 41.4317 9.49693 41.7123 9.78764C41.9929 10.0784 42.2042 10.4265 42.331 10.8071C42.4578 11.1877 42.497 11.5911 42.4457 11.9883C42.4457 13.9422 41.3695 15.0653 39.5128 15.0653H37.2615V8.94932H39.5128ZM38.2295 14.2004H39.4047C39.6955 14.2175 39.9866 14.1707 40.2566 14.0634C40.5267 13.9562 40.769 13.7912 40.9659 13.5805C41.1628 13.3698 41.3093 13.1187 41.3949 12.8454C41.4804 12.5721 41.5027 12.2836 41.4602 12.0007C41.4996 11.719 41.475 11.4323 41.3882 11.161C41.3014 10.8897 41.1545 10.6406 40.958 10.4316C40.7616 10.2226 40.5204 10.0588 40.2519 9.95194C39.9833 9.84509 39.694 9.79786 39.4047 9.81361H38.2295V14.2004Z" fill="white"/>
<path d="M43.5392 12.7555C43.5096 12.4522 43.545 12.1462 43.643 11.857C43.741 11.5679 43.8995 11.3021 44.1084 11.0766C44.3173 10.8511 44.5718 10.671 44.8558 10.5477C45.1398 10.4244 45.4469 10.3607 45.7574 10.3607C46.0679 10.3607 46.375 10.4244 46.659 10.5477C46.943 10.671 47.1976 10.8511 47.4064 11.0766C47.6153 11.3021 47.7738 11.5679 47.8718 11.857C47.9698 12.1462 48.0052 12.4522 47.9756 12.7555C48.0058 13.0591 47.9708 13.3656 47.8731 13.6552C47.7753 13.9448 47.6169 14.2111 47.408 14.437C47.199 14.6629 46.9443 14.8435 46.66 14.967C46.3758 15.0906 46.0683 15.1544 45.7574 15.1544C45.4465 15.1544 45.1391 15.0906 44.8548 14.967C44.5705 14.8435 44.3158 14.6629 44.1069 14.437C43.8979 14.2111 43.7395 13.9448 43.6418 13.6552C43.544 13.3656 43.509 13.0591 43.5392 12.7555ZM47.0208 12.7555C47.0208 11.755 46.5628 11.17 45.7589 11.17C44.952 11.17 44.4981 11.755 44.4981 12.7555C44.4981 13.764 44.9521 14.3446 45.7589 14.3446C46.5628 14.3446 47.0208 13.76 47.0208 12.7555Z" fill="white"/>
<path d="M53.8729 15.0652H52.9099L51.9378 11.6659H51.8643L50.8962 15.0652H49.9424L48.6459 10.4497H49.5874L50.43 13.9716H50.4994L51.4665 10.4497H52.357L53.3241 13.9716H53.3975L54.2361 10.4497H55.1644L53.8729 15.0652Z" fill="white"/>
<path d="M56.2549 10.4497H57.1485V11.1829H57.2179C57.3355 10.9196 57.534 10.6988 57.7856 10.5514C58.0372 10.404 58.3295 10.3373 58.6215 10.3606C58.8504 10.3437 59.0802 10.3776 59.2939 10.4597C59.5077 10.5418 59.6998 10.67 59.8562 10.8349C60.0125 10.9998 60.1291 11.197 60.1972 11.4121C60.2653 11.6272 60.2832 11.8545 60.2496 12.0773V15.0652H59.3213V12.306C59.3213 11.5643 58.9929 11.1954 58.3063 11.1954C58.1509 11.1883 57.9958 11.2143 57.8516 11.2715C57.7074 11.3287 57.5775 11.4159 57.4708 11.527C57.3641 11.6381 57.2832 11.7705 57.2335 11.9152C57.1839 12.0598 57.1667 12.2133 57.1832 12.3651V15.0652H56.2549L56.2549 10.4497Z" fill="white"/>
<path d="M61.7288 8.64795H62.6571V15.0652H61.7288V8.64795Z" fill="white"/>
<path d="M63.9475 12.7555C63.9179 12.4521 63.9533 12.1461 64.0514 11.857C64.1494 11.5678 64.308 11.302 64.5168 11.0765C64.7257 10.851 64.9803 10.6708 65.2643 10.5476C65.5483 10.4243 65.8554 10.3606 66.166 10.3606C66.4765 10.3606 66.7836 10.4243 67.0676 10.5476C67.3516 10.6708 67.6062 10.851 67.8151 11.0765C68.024 11.302 68.1825 11.5678 68.2806 11.857C68.3786 12.1461 68.414 12.4521 68.3844 12.7555C68.4145 13.0591 68.3796 13.3656 68.2818 13.6552C68.184 13.9447 68.0255 14.2111 67.8166 14.437C67.6077 14.6629 67.3529 14.8434 67.0686 14.967C66.7843 15.0905 66.4769 15.1543 66.166 15.1543C65.8551 15.1543 65.5476 15.0905 65.2633 14.967C64.9791 14.8434 64.7243 14.6629 64.5153 14.437C64.3064 14.2111 64.148 13.9447 64.0502 13.6552C63.9524 13.3656 63.9174 13.0591 63.9475 12.7555ZM67.4291 12.7555C67.4291 11.755 66.9711 11.1699 66.1672 11.1699C65.3603 11.1699 64.9064 11.755 64.9064 12.7555C64.9064 13.764 65.3604 14.3445 66.1672 14.3445C66.9711 14.3445 67.4291 13.7599 67.4291 12.7555Z" fill="white"/>
<path d="M69.3617 13.7599C69.3617 12.9291 69.9921 12.4501 71.1112 12.3821L72.3853 12.31V11.9116C72.3853 11.4241 72.0568 11.1489 71.4223 11.1489C70.9041 11.1489 70.545 11.3355 70.442 11.6619H69.5433C69.6381 10.8691 70.3981 10.3606 71.4652 10.3606C72.6444 10.3606 73.3095 10.9366 73.3095 11.9116V15.0652H72.4159V14.4166H72.3425C72.1934 14.6492 71.984 14.8389 71.7358 14.9662C71.4876 15.0935 71.2094 15.1539 70.9296 15.1412C70.7321 15.1614 70.5326 15.1407 70.3437 15.0805C70.1549 15.0204 69.981 14.9221 69.8333 14.7919C69.6856 14.6618 69.5673 14.5027 69.4861 14.3249C69.4048 14.1472 69.3625 13.9547 69.3617 13.7599ZM72.3853 13.3655V12.9796L71.2367 13.0517C70.5889 13.0943 70.2951 13.3105 70.2951 13.7174C70.2951 14.1328 70.6623 14.3745 71.1673 14.3745C71.3153 14.3892 71.4647 14.3745 71.6068 14.3314C71.7489 14.2882 71.8807 14.2175 71.9943 14.1234C72.1079 14.0292 72.2011 13.9136 72.2683 13.7834C72.3354 13.6532 72.3752 13.5111 72.3853 13.3655Z" fill="white"/>
<path d="M74.5295 12.7555C74.5295 11.2971 75.2936 10.3731 76.482 10.3731C76.776 10.3599 77.0677 10.4289 77.3232 10.5723C77.5786 10.7157 77.7872 10.9275 77.9245 11.1829H77.9938V8.64795H78.9221V15.0652H78.0326V14.336H77.9592C77.8112 14.5897 77.5954 14.7988 77.335 14.9407C77.0747 15.0827 76.7797 15.152 76.482 15.1413C75.2854 15.1413 74.5295 14.2174 74.5295 12.7555ZM75.4885 12.7555C75.4885 13.7344 75.9588 14.3235 76.7453 14.3235C77.5277 14.3235 78.0112 13.7259 78.0112 12.7595C78.0112 11.7975 77.5226 11.1914 76.7453 11.1914C75.9638 11.1914 75.4885 11.7845 75.4885 12.7555Z" fill="white"/>
<path d="M82.7629 12.7555C82.7334 12.4522 82.7687 12.1462 82.8667 11.857C82.9648 11.5679 83.1233 11.3021 83.3322 11.0766C83.541 10.8511 83.7956 10.671 84.0796 10.5477C84.3635 10.4244 84.6706 10.3607 84.9812 10.3607C85.2917 10.3607 85.5988 10.4244 85.8828 10.5477C86.1667 10.671 86.4213 10.8511 86.6302 11.0766C86.839 11.3021 86.9975 11.5679 87.0956 11.857C87.1936 12.1462 87.229 12.4522 87.1994 12.7555C87.2295 13.0591 87.1946 13.3656 87.0968 13.6552C86.999 13.9448 86.8406 14.2111 86.6317 14.437C86.4228 14.6629 86.168 14.8435 85.8838 14.967C85.5995 15.0906 85.2921 15.1544 84.9812 15.1544C84.6703 15.1544 84.3628 15.0906 84.0785 14.967C83.7943 14.8435 83.5395 14.6629 83.3306 14.437C83.1217 14.2111 82.9633 13.9448 82.8655 13.6552C82.7677 13.3656 82.7328 13.0591 82.7629 12.7555ZM86.2446 12.7555C86.2446 11.755 85.7865 11.17 84.9827 11.17C84.1758 11.17 83.7219 11.755 83.7219 12.7555C83.7219 13.764 84.1758 14.3446 84.9827 14.3446C85.7865 14.3446 86.2446 13.76 86.2446 12.7555Z" fill="white"/>
<path d="M88.4449 10.4497H89.3386V11.1829H89.4079C89.5256 10.9196 89.7241 10.6988 89.9757 10.5514C90.2273 10.404 90.5195 10.3373 90.8116 10.3606C91.0405 10.3437 91.2703 10.3776 91.484 10.4597C91.6977 10.5418 91.8899 10.67 92.0462 10.8349C92.2026 10.9998 92.3191 11.197 92.3873 11.4121C92.4554 11.6272 92.4733 11.8545 92.4397 12.0773V15.0652H91.5114V12.306C91.5114 11.5643 91.1829 11.1954 90.4964 11.1954C90.341 11.1883 90.1859 11.2143 90.0417 11.2715C89.8974 11.3287 89.7676 11.4159 89.6609 11.527C89.5542 11.6381 89.4733 11.7705 89.4236 11.9152C89.374 12.0598 89.3568 12.2133 89.3732 12.3651V15.0652H88.4449V10.4497Z" fill="white"/>
<path d="M97.6851 9.30054V10.4707H98.7042V11.2379H97.6851V13.6112C97.6851 14.0947 97.8881 14.3064 98.3502 14.3064C98.4685 14.306 98.5867 14.299 98.7042 14.2854V15.0441C98.5375 15.0734 98.3686 15.089 98.1992 15.0907C97.1669 15.0907 96.7558 14.7343 96.7558 13.8445V11.2379H96.009V10.4706H96.7558V9.30054H97.6851Z" fill="white"/>
<path d="M99.9722 8.64795H100.892V11.1914H100.966C101.089 10.9256 101.293 10.7036 101.55 10.5557C101.806 10.4077 102.103 10.341 102.4 10.3646C102.628 10.3525 102.855 10.3898 103.067 10.4739C103.278 10.558 103.468 10.6868 103.622 10.8511C103.777 11.0155 103.893 11.2113 103.962 11.4246C104.03 11.638 104.05 11.8636 104.02 12.0853V15.0652H103.091V12.31C103.091 11.5728 102.741 11.1994 102.085 11.1994C101.925 11.1866 101.765 11.2081 101.615 11.2625C101.464 11.3169 101.328 11.4028 101.215 11.5143C101.103 11.6257 101.016 11.76 100.962 11.9077C100.907 12.0555 100.886 12.2131 100.901 12.3696V15.0652H99.9722L99.9722 8.64795Z" fill="white"/>
<path d="M109.433 13.819C109.306 14.2409 109.033 14.6058 108.661 14.8499C108.288 15.094 107.84 15.2017 107.394 15.1543C107.085 15.1624 106.777 15.1041 106.492 14.9837C106.207 14.8632 105.953 14.6834 105.746 14.4567C105.539 14.2301 105.385 13.962 105.295 13.671C105.204 13.3801 105.179 13.0734 105.222 12.772C105.18 12.4698 105.206 12.1623 105.296 11.8705C105.386 11.5788 105.54 11.3094 105.745 11.0808C105.951 10.8521 106.204 10.6695 106.488 10.5453C106.772 10.421 107.08 10.3581 107.39 10.3607C108.699 10.3607 109.489 11.2381 109.489 12.6874V13.0053H106.167V13.0563C106.153 13.2257 106.174 13.3962 106.231 13.5568C106.287 13.7175 106.378 13.8648 106.496 13.9893C106.613 14.1138 106.757 14.2127 106.916 14.2798C107.075 14.3468 107.247 14.3804 107.42 14.3786C107.642 14.4047 107.867 14.3655 108.066 14.2658C108.265 14.1662 108.43 14.0107 108.539 13.819L109.433 13.819ZM106.167 12.3316H108.543C108.555 12.1767 108.533 12.0211 108.48 11.8748C108.427 11.7285 108.343 11.5948 108.234 11.4822C108.125 11.3696 107.993 11.2806 107.847 11.221C107.701 11.1613 107.543 11.1324 107.385 11.1359C107.225 11.134 107.065 11.1635 106.917 11.2229C106.768 11.2823 106.633 11.3703 106.519 11.4818C106.406 11.5932 106.316 11.7258 106.256 11.8717C106.195 12.0177 106.165 12.1741 106.167 12.3316Z" fill="white"/>
</svg>
