<svg width="18" height="19" viewBox="0 0 18 19" fill="none" xmlns="http://www.w3.org/2000/svg">
<g clip-path="url(#clip0_27_992)">
<path d="M6.27041 1.09207C4.47194 1.71598 2.92093 2.90018 1.84522 4.47073C0.7695 6.04128 0.225778 7.9154 0.293912 9.81781C0.362046 11.7202 1.03845 13.5506 2.22376 15.0402C3.40907 16.5298 5.04082 17.6 6.87932 18.0936C8.36984 18.4782 9.93146 18.4951 11.4299 18.1429C12.7874 17.8379 14.0425 17.1857 15.0721 16.25C16.1438 15.2465 16.9217 13.9698 17.3221 12.5572C17.7572 11.0211 17.8347 9.40574 17.5485 7.83504H9.17854V11.3071H14.0259C13.929 11.8608 13.7214 12.3894 13.4155 12.861C13.1096 13.3327 12.7117 13.7378 12.2456 14.0521C11.6537 14.4438 10.9865 14.7072 10.2867 14.8255C9.58487 14.956 8.86502 14.956 8.16323 14.8255C7.45188 14.6786 6.77897 14.385 6.18745 13.9635C5.23703 13.2907 4.5234 12.3349 4.14838 11.2325C3.76713 10.1095 3.76713 8.89201 4.14838 7.76895C4.41533 6.98175 4.85662 6.26501 5.43932 5.67223C6.10615 4.98141 6.95038 4.4876 7.87938 4.24499C8.80839 4.00239 9.78626 4.02035 10.7057 4.29692C11.424 4.51731 12.0809 4.90256 12.6239 5.42192C13.1704 4.87817 13.716 4.33301 14.2607 3.78645C14.542 3.49254 14.8485 3.2127 15.1256 2.91176C14.2966 2.14046 13.3237 1.54025 12.2624 1.14551C10.3298 0.443779 8.21523 0.42492 6.27041 1.09207Z" fill="white"/>
<path d="M6.27053 1.09203C8.21518 0.424418 10.3298 0.44278 12.2626 1.14406C13.324 1.54148 14.2965 2.14458 15.1243 2.91874C14.843 3.21968 14.5463 3.50093 14.2594 3.79343C13.7138 4.33812 13.1687 4.88093 12.624 5.42187C12.081 4.90251 11.4242 4.51726 10.7058 4.29687C9.78668 4.01933 8.80883 4.00033 7.87959 4.24194C6.95034 4.48356 6.10559 4.97646 5.43803 5.66656C4.85532 6.25934 4.41403 6.97608 4.14709 7.76328L1.23193 5.50624C2.27538 3.43703 4.08205 1.85425 6.27053 1.09203Z" fill="#E33629"/>
<path d="M0.458429 7.74216C0.615 6.96559 0.875137 6.21356 1.23187 5.50623L4.14702 7.76888C3.76577 8.89194 3.76577 10.1094 4.14702 11.2325C3.17577 11.9825 2.20405 12.7362 1.23187 13.4937C0.339109 11.7167 0.0668339 9.69193 0.458429 7.74216Z" fill="#F8BD00"/>
<path d="M9.1786 7.83362H17.5486C17.8348 9.40431 17.7573 11.0197 17.3222 12.5558C16.9217 13.9684 16.1439 15.245 15.0722 16.2486C14.1314 15.5146 13.1864 14.7861 12.2456 14.0521C12.7121 13.7374 13.1102 13.3319 13.4161 12.8597C13.722 12.3876 13.9294 11.8585 14.0259 11.3042H9.1786C9.1772 10.1483 9.1786 8.99096 9.1786 7.83362Z" fill="#587DBD"/>
<path d="M1.23047 13.4938C2.20266 12.7438 3.17437 11.99 4.14562 11.2325C4.52139 12.3353 5.23604 13.2911 6.1875 13.9635C6.78087 14.3831 7.45523 14.6743 8.1675 14.8185C8.8693 14.949 9.58914 14.949 10.2909 14.8185C10.9907 14.7002 11.658 14.4367 12.2498 14.045C13.1906 14.7791 14.1356 15.5075 15.0764 16.2416C14.0469 17.1778 12.7918 17.8305 11.4342 18.1358C9.93573 18.4881 8.37411 18.4712 6.88359 18.0866C5.70474 17.7718 4.60361 17.217 3.64922 16.4568C2.63915 15.6547 1.81411 14.644 1.23047 13.4938Z" fill="#319F43"/>
</g>
<defs>
<clipPath id="clip0_27_992">
<rect width="18" height="18" fill="white" transform="translate(0 0.5)"/>
</clipPath>
</defs>
</svg>
