<svg width="19" height="18" viewBox="0 0 19 18" fill="currentColor" xmlns="http://www.w3.org/2000/svg">
<path d="M4.33231 1.35339L3.54031 2.14427L4.71875 3.32214L5.50962 2.53127L4.33231 1.35339ZM14.6683 1.35339L13.4898 2.53127L14.2812 3.32214L15.4591 2.14483L14.6683 1.35339ZM9.5 1.70439C9.31437 1.70664 9.1265 1.71733 8.9375 1.74039C8.93188 1.74039 8.92625 1.73927 8.92063 1.74039C6.63912 2.00196 4.82337 3.84527 4.50781 6.11664C4.25581 7.94477 5.00956 9.60246 6.26562 10.6701C6.77942 11.1086 7.12694 11.7103 7.25 12.3745V15.7495H8.5325C8.72825 16.0853 9.08544 16.312 9.5 16.312C9.91456 16.312 10.2717 16.0853 10.4675 15.7495H11.75V13.4995H11.8029V12.8312C11.8029 12.0066 12.2315 11.1752 12.9279 10.5289C13.8594 9.59627 14.5625 8.27158 14.5625 6.75002C14.5625 3.97127 12.2754 1.67852 9.5 1.70439ZM9.5 2.82939C11.6741 2.79902 13.4375 4.57877 13.4375 6.75002C13.4375 7.92789 12.8919 8.96514 12.1364 9.72002L12.1544 9.73802C11.4037 10.4303 10.9183 11.363 10.7819 12.375H8.32156C8.19781 11.4109 7.78438 10.4777 7.00306 9.80833C6.00912 8.96458 5.41681 7.69333 5.61481 6.25783C5.86063 4.48596 7.29838 3.06114 9.06013 2.86596C9.20558 2.84568 9.35206 2.83366 9.49888 2.82996L9.5 2.82939ZM1.625 6.75002V7.87502H3.3125V6.75002H1.625ZM15.6875 6.75002V7.87502H17.375V6.75002H15.6875ZM4.71875 11.3029L3.54088 12.4802L4.33231 13.2716L5.50906 12.0938L4.71875 11.3029ZM14.2812 11.3029L13.4904 12.0938L14.6677 13.2716L15.4591 12.4802L14.2812 11.3029ZM8.375 13.5H10.625V14.625H8.375V13.5Z"/>
</svg>
