<svg width="19" height="20" viewBox="0 0 19 20" fill="none" xmlns="http://www.w3.org/2000/svg">
<path fill-rule="evenodd" clip-rule="evenodd" d="M11.0707 2.51246C11.1396 2.64625 11.157 2.81804 11.191 3.16162C11.256 3.81079 11.2884 4.13537 11.4246 4.31429C11.5094 4.42538 11.6222 4.51202 11.7513 4.56542C11.8805 4.61882 12.0215 4.63706 12.16 4.61829C12.3817 4.589 12.635 4.38237 13.1401 3.96912C13.4069 3.74983 13.5407 3.64058 13.684 3.59467C13.8665 3.53635 14.064 3.54619 14.2397 3.62237C14.3783 3.68254 14.501 3.80446 14.744 4.04829L15.4518 4.75604C15.6956 4.99987 15.8175 5.12179 15.8777 5.26033C15.9539 5.43613 15.9637 5.63358 15.9054 5.81608C15.8595 5.95937 15.7502 6.09317 15.5317 6.35996C15.1177 6.86583 14.9111 7.11837 14.881 7.34083C14.8625 7.47929 14.8809 7.62019 14.9344 7.74922C14.988 7.87825 15.0747 7.99082 15.1858 8.0755C15.3639 8.21167 15.6893 8.24412 16.3393 8.30904C16.682 8.34308 16.8538 8.3605 16.9884 8.42937C17.1582 8.51741 17.2904 8.66392 17.3605 8.84183C17.4167 8.98196 17.4167 9.15454 17.4167 9.49971V10.5004C17.4167 10.8455 17.4167 11.0181 17.3613 11.1575C17.2909 11.3359 17.1581 11.4828 16.9876 11.5707C16.8538 11.6396 16.682 11.657 16.3385 11.691C15.6893 11.756 15.3647 11.7884 15.1858 11.9246C15.0747 12.0094 14.9881 12.1222 14.9347 12.2513C14.8813 12.3805 14.863 12.5215 14.8818 12.66C14.9119 12.8817 15.1185 13.135 15.5317 13.6401C15.7502 13.9069 15.8595 14.0399 15.9054 14.184C15.9637 14.3665 15.9539 14.564 15.8777 14.7397C15.8175 14.8783 15.6956 15.0002 15.4518 15.244L14.744 15.951C14.5002 16.1956 14.3783 16.3175 14.2397 16.3769C14.064 16.4531 13.8665 16.4629 13.684 16.4046C13.5407 16.3587 13.4069 16.2495 13.1401 16.031C12.6342 15.6177 12.3817 15.4111 12.16 15.3818C12.0215 15.363 11.8805 15.3813 11.7513 15.4347C11.6222 15.4881 11.5094 15.5747 11.4246 15.6858C11.2884 15.8639 11.256 16.1885 11.191 16.8385C11.157 17.182 11.1396 17.3538 11.0707 17.4876C10.983 17.658 10.8364 17.7908 10.6582 17.8613C10.5181 17.9167 10.3455 17.9167 10.0004 17.9167H8.99971C8.65454 17.9167 8.48196 17.9167 8.34262 17.8613C8.16415 17.7909 8.0173 17.6581 7.92937 17.4876C7.8605 17.3538 7.84308 17.182 7.80904 16.8385C7.74412 16.1893 7.71167 15.8647 7.5755 15.6858C7.49073 15.5748 7.37812 15.4883 7.2491 15.4349C7.12007 15.3815 6.97922 15.3632 6.84083 15.3818C6.61837 15.4111 6.36583 15.6177 5.85996 16.031C5.59317 16.2503 5.45937 16.3595 5.31608 16.4054C5.13358 16.4637 4.93613 16.4539 4.76033 16.3777C4.62179 16.3175 4.49908 16.1956 4.25604 15.9518L3.54829 15.244C3.30446 15.0002 3.18254 14.8783 3.12237 14.7397C3.04619 14.564 3.03635 14.3665 3.09467 14.184C3.14058 14.0407 3.24983 13.9069 3.46833 13.6401C3.88237 13.1342 4.089 12.8817 4.11829 12.6593C4.13691 12.5209 4.1186 12.38 4.06521 12.251C4.01182 12.122 3.92525 12.0094 3.81429 11.9246C3.63617 11.7884 3.31079 11.756 2.66083 11.691C2.31804 11.657 2.14625 11.6396 2.01167 11.5707C1.84189 11.4827 1.70972 11.3362 1.63958 11.1582C1.58337 11.0181 1.58337 10.8455 1.58337 10.5004V9.49971C1.58337 9.15454 1.58337 8.98196 1.63879 8.84262C1.70916 8.66415 1.84194 8.5173 2.01246 8.42937C2.14625 8.3605 2.31804 8.34308 2.66162 8.30904C3.31079 8.24412 3.63617 8.21167 3.81429 8.0755C3.9254 7.99082 4.01212 7.87825 4.06565 7.74922C4.11918 7.62019 4.13761 7.47929 4.11908 7.34083C4.089 7.11837 3.88158 6.86583 3.46833 6.35917C3.24983 6.09237 3.14058 5.95937 3.09467 5.81529C3.03635 5.63279 3.04619 5.43534 3.12237 5.25954C3.18254 5.12179 3.30446 4.99908 3.54829 4.75525L4.25604 4.04829C4.49987 3.80446 4.62179 3.68175 4.76033 3.62237C4.93613 3.54619 5.13358 3.53635 5.31608 3.59467C5.45937 3.64058 5.59317 3.74983 5.85996 3.96833C6.36583 4.38158 6.61837 4.58821 6.84004 4.61829C6.97875 4.63711 7.11997 4.61882 7.24931 4.56528C7.37865 4.51174 7.49147 4.42486 7.57629 4.3135C7.71087 4.13537 7.74412 3.81079 7.80904 3.16083C7.84308 2.81804 7.8605 2.64625 7.92937 2.51167C8.01726 2.34159 8.16379 2.20913 8.34183 2.13879C8.48196 2.08337 8.65454 2.08337 8.99971 2.08337H10.0004C10.3455 2.08337 10.5181 2.08337 10.6575 2.13879C10.8359 2.20916 10.9828 2.34194 11.0707 2.51246ZM9.50004 13.1667C10.3399 13.1667 11.1453 12.8331 11.7392 12.2392C12.3331 11.6453 12.6667 10.8399 12.6667 10C12.6667 9.16019 12.3331 8.35473 11.7392 7.76087C11.1453 7.167 10.3399 6.83337 9.50004 6.83337C8.66019 6.83337 7.85473 7.167 7.26087 7.76087C6.667 8.35473 6.33337 9.16019 6.33337 10C6.33337 10.8399 6.667 11.6453 7.26087 12.2392C7.85473 12.8331 8.66019 13.1667 9.50004 13.1667Z" fill="#019DA9"/>
</svg>
