<svg width="420" height="90" viewBox="0 0 420 90" fill="none" xmlns="http://www.w3.org/2000/svg">
<g clip-path="url(#clip0_27_987)">
<path fill-rule="evenodd" clip-rule="evenodd" d="M420 17.275C420 15.7682 419.554 14.2952 418.719 13.0424C417.884 11.7895 416.698 10.8131 415.309 10.2366C413.921 9.66016 412.393 9.50952 410.919 9.80376C409.445 10.098 408.092 10.8239 407.029 11.8897C405.967 12.9554 405.244 14.3132 404.951 15.7911C404.658 17.2691 404.809 18.8009 405.385 20.1929C405.96 21.5848 406.935 22.7743 408.185 23.6109C409.434 24.4475 410.904 24.8937 412.406 24.893C413.404 24.8935 414.392 24.6968 415.314 24.3141C416.236 23.9314 417.074 23.3703 417.779 22.6628C418.485 21.9553 419.045 21.1153 419.426 20.1909C419.808 19.2664 420.004 18.2756 420.004 17.275" fill="white"/>
<path fill-rule="evenodd" clip-rule="evenodd" d="M204.31 54.1797L219.127 33.0828H233.125L217.101 55.2643L235.803 80.3429H222.013L204.296 57.036V80.3429H192.139V14.3073L204.31 14.363V54.1797ZM248.99 37.3059C249.867 36.4324 250.827 35.6474 251.857 34.9622C254.42 33.2091 257.536 32.5628 260.747 32.5628C261.277 32.5628 261.81 32.5814 262.344 32.5999C262.877 32.6185 263.329 32.6779 263.825 32.7522L266.903 33.3836L264.929 43.895L263.429 43.5495C263.055 43.4595 262.672 43.4146 262.288 43.4158H261.073C259.623 43.4089 258.178 43.6077 256.784 44.0064C255.488 44.3805 254.297 45.0519 253.305 45.9675C252.184 47.079 251.337 48.4372 250.831 49.9343C250.09 51.9883 249.883 54.4657 249.883 56.7128V80.3615H237.711V33.0419L248.231 33.1014C248.534 34.5091 248.801 35.861 248.99 37.3059ZM154.226 51.2678C155.801 45.403 160.524 42.4687 166.284 42.4687C172.399 42.4687 176.766 45.403 177.466 51.2678H154.226ZM187.682 60.5534C189.357 41.9301 180.356 32.5814 165.924 32.5814C151.948 32.5814 143.044 42.4836 143.044 56.2523C143.044 70.7379 151.852 80.3578 166.721 80.3578C173.273 80.3578 180.696 77.9769 185.241 73.0258L178.426 65.9688C175.996 68.6356 170.829 70.1956 166.898 70.1956C159.379 70.1956 154.745 66.1619 154.064 60.5608L187.682 60.5534ZM347.084 65.9056C344.976 68.4016 341.824 70.0767 337.627 70.0767C330.489 70.0767 324.773 64.9919 324.773 56.4417C324.773 47.8915 330.489 42.9218 337.627 42.9218C341.994 42.9218 345.243 44.7307 347.35 47.4346C348.906 49.4143 349.836 52.538 349.943 55.736C350.065 59.6248 349.002 63.6251 347.084 65.9056ZM349.477 38.7693C346.684 35.2111 341.787 33.0196 336.66 33.0196C323.973 32.9454 314.005 41.0164 314.005 56.4417C314.005 72.153 323.54 80.3206 336.393 80.2129C340.683 80.1386 346.495 78.1403 349.477 74.0435V80.2129H361.156V34.1302H349.477V38.7693ZM277.205 51.2678C278.783 45.403 283.502 42.4687 289.265 42.4687C295.396 42.4687 299.763 45.403 300.448 51.2678H277.205ZM310.683 60.5534C312.335 41.9301 303.334 32.5814 288.921 32.5814C274.945 32.5814 266.022 42.4836 266.022 56.2523C266.022 70.7379 274.852 80.3578 289.699 80.3578C296.27 80.3578 303.693 77.9769 308.22 73.0258L301.4 65.9688C298.952 68.6356 293.807 70.1956 289.877 70.1956C282.357 70.1956 277.723 66.1619 277.019 60.5608L310.683 60.5534ZM115.062 25.8994C122.66 25.8994 126.038 31.1922 126.038 36.5036C126.038 41.815 122.734 47.1115 115.062 47.1115H106.046V25.8846L115.062 25.8994ZM129.99 53.682C135.95 49.5963 138.117 42.8847 138.117 36.225C138.117 24.7814 130.161 14.3295 115.062 14.3295H93.9857V80.3429H106.046V58.3137H109.632C111.721 58.3137 113.64 58.3323 115.54 58.2543L134.224 80.3429H149.204L127.805 55.0563C128.564 54.618 129.286 54.1612 129.99 53.6635V53.682ZM383.199 70.7044H367.345V80.2426H383.199C395.445 80.1869 401.616 73.4641 401.616 65.6568C401.616 53.8529 391.271 51.966 383.121 51.4349C377.598 51.0635 375.054 49.4329 375.054 46.5581C375.054 43.7984 377.787 42.179 382.762 42.1418H396.479V33.0234H382.751C374.872 33.0234 364.523 36.641 364.523 46.9072C364.523 56.9988 374.265 60.0631 382.41 60.6908C388.544 61.0622 390.993 62.3102 390.993 65.3782C390.985 68.6133 387.218 70.7861 383.181 70.6896L383.199 70.7044ZM401.427 42.1418L401.335 33.0382H413.466C417.263 33.0382 419.163 33.4951 418.937 38.2382L419.067 80.2426H407.087L406.991 46.8144V42.1344L401.427 42.1418Z" fill="white"/>
<path fill-rule="evenodd" clip-rule="evenodd" d="M7.94546 64.3384C3.03004 56.5385 3.6943e-05 47.888 3.6943e-05 39.1261C-0.00806537 33.2336 1.31668 27.4161 3.87459 22.1111C8.92383 18.8439 14.4958 16.4718 20.347 15.0986C36.6231 11.3843 60.4001 16.4914 60.9446 37.1947C61.2928 50.462 44.3314 60.3567 36.0749 43.832C27.5331 60.8879 58.7591 72.4058 68.5789 50.7517C82.1991 20.7183 45.2204 -11.3172 9.82718 13.1598C15.079 7.21911 22.0089 3.02111 29.6964 1.12332C37.384 -0.774458 45.4655 -0.282203 52.8675 2.5347C60.2694 5.3516 66.6416 10.3598 71.1376 16.8942C75.6337 23.4286 78.0408 31.18 78.0393 39.1187C78.0393 50.7034 72.7424 62.1136 64.7932 71.5664C54.6253 70.8978 46.5058 68.673 41.5533 65.8984C22.6917 55.3276 33.9894 33.4099 43.2461 35.7498C46.2576 36.5113 46.9762 39.5755 45.839 41.6926C44.9871 43.2823 43.0831 44.3446 40.3235 43.5126C46.6762 51.58 55.1068 42.1383 53.9919 34.5464C51.7953 19.6151 20.0766 27.2851 23.5659 55.5951C24.8105 65.6941 35.8637 78.4823 51.5657 83.8234C48.2868 86.1895 44.8033 88.2567 41.157 90.0002C8.62703 72.6843 8.3307 29.521 40.3013 21.8697C13.7017 14.2555 1.24834 40.7864 7.95287 64.3421" fill="white"/>
</g>
<defs>
<clipPath id="clip0_27_987">
<rect width="420" height="90" fill="white"/>
</clipPath>
</defs>
</svg>
