<svg width="138" height="30" viewBox="0 0 138 30" fill="none" xmlns="http://www.w3.org/2000/svg">
<g clip-path="url(#clip0_183_3606)">
<path fill-rule="evenodd" clip-rule="evenodd" d="M138 5.75831C138 5.25603 137.853 4.76503 137.579 4.34741C137.305 3.9298 136.915 3.60433 136.459 3.41217C136.002 3.22001 135.5 3.1698 135.016 3.26788C134.532 3.36596 134.087 3.60793 133.738 3.96318C133.389 4.31843 133.151 4.77101 133.055 5.26367C132.959 5.75633 133.009 6.26694 133.198 6.73092C133.387 7.1949 133.707 7.59139 134.118 7.87027C134.528 8.14914 135.011 8.29786 135.505 8.29762C135.833 8.29778 136.157 8.23221 136.46 8.10466C136.763 7.9771 137.038 7.79006 137.27 7.55423C137.502 7.3184 137.686 7.03841 137.811 6.73025C137.937 6.42209 138.001 6.09182 138.001 5.75831" fill="#019DA9"/>
<path fill-rule="evenodd" clip-rule="evenodd" d="M67.1304 18.0599L71.9987 11.0276H76.5981L71.333 18.4214L77.478 26.7809H72.9468L67.1255 19.012V26.7809H63.1311V4.76904L67.1304 4.78762V18.0599ZM81.8109 12.4353C82.0989 12.1441 82.4145 11.8824 82.7529 11.654C83.5951 11.0697 84.6187 10.8542 85.6739 10.8542C85.8479 10.8542 86.0232 10.8604 86.1984 10.8666C86.3737 10.8728 86.5222 10.8926 86.6853 10.9174L87.6967 11.1278L87.048 14.6316L86.555 14.5165C86.4323 14.4865 86.3064 14.4715 86.1802 14.4719H85.781C85.3044 14.4696 84.8299 14.5359 84.3716 14.6688C83.9459 14.7935 83.5546 15.0173 83.2287 15.3225C82.8604 15.693 82.582 16.1457 82.4157 16.6447C82.1723 17.3294 82.1042 18.1552 82.1042 18.9042V26.7871H78.1048V11.0139L81.5614 11.0337C81.6612 11.503 81.7488 11.9536 81.8109 12.4353ZM50.6743 17.0892C51.1915 15.1343 52.7433 14.1562 54.6359 14.1562C56.6453 14.1562 58.0802 15.1343 58.3102 17.0892H50.6743ZM61.6669 20.1844C62.2171 13.9767 59.2596 10.8604 54.5178 10.8604C49.9258 10.8604 46.9999 14.1611 46.9999 18.7507C46.9999 23.5792 49.8941 26.7859 54.7795 26.7859C56.9325 26.7859 59.3715 25.9923 60.8649 24.3419L58.6255 21.9895C57.827 22.8785 56.1292 23.3985 54.8379 23.3985C52.3672 23.3985 50.8446 22.0539 50.6207 20.1869L61.6669 20.1844ZM114.042 21.9685C113.349 22.8005 112.313 23.3589 110.934 23.3589C108.589 23.3589 106.711 21.6639 106.711 18.8139C106.711 15.9638 108.589 14.3072 110.934 14.3072C112.369 14.3072 113.437 14.9102 114.129 15.8115C114.64 16.4714 114.946 17.5126 114.981 18.5786C115.021 19.8749 114.672 21.2083 114.042 21.9685ZM114.828 12.9231C113.91 11.737 112.301 11.0065 110.617 11.0065C106.448 10.9817 103.173 13.6721 103.173 18.8139C103.173 24.051 106.306 26.7735 110.529 26.7376C111.938 26.7128 113.848 26.0467 114.828 24.6811V26.7376H118.665V11.3767H114.828V12.9231ZM91.0814 17.0892C91.5998 15.1343 93.1504 14.1562 95.0442 14.1562C97.0584 14.1562 98.4934 15.1343 98.7185 17.0892H91.0814ZM102.081 20.1844C102.624 13.9767 99.6667 10.8604 94.931 10.8604C90.3389 10.8604 87.407 14.1611 87.407 18.7507C87.407 23.5792 90.3085 26.7859 95.1866 26.7859C97.3457 26.7859 99.7847 25.9923 101.272 24.3419L99.0313 21.9895C98.2268 22.8785 96.5363 23.3985 95.245 23.3985C92.7743 23.3985 91.2518 22.0539 91.0205 20.1869L102.081 20.1844ZM37.8061 8.6331C40.3023 8.6331 41.4123 10.3974 41.4123 12.1678C41.4123 13.9383 40.3266 15.7038 37.8061 15.7038H34.8437V8.62815L37.8061 8.6331ZM42.7109 17.894C44.6692 16.5321 45.3812 14.2949 45.3812 12.075C45.3812 8.26044 42.7669 4.77647 37.8061 4.77647H30.8809V26.7809H34.8437V19.4379H36.0218C36.7082 19.4379 37.3387 19.444 37.9631 19.418L44.102 26.7809H49.0239L41.9928 18.3521C42.2423 18.206 42.4796 18.0537 42.7109 17.8878V17.894ZM125.908 23.5681H120.699V26.7475H125.908C129.932 26.7289 131.959 24.488 131.959 21.8856C131.959 17.9509 128.56 17.322 125.883 17.1449C124.068 17.0211 123.232 16.4776 123.232 15.5193C123.232 14.5994 124.13 14.0596 125.765 14.0472H130.271V11.0077H125.761C123.172 11.0077 119.772 12.2136 119.772 15.6357C119.772 18.9996 122.973 20.021 125.649 20.2302C127.664 20.354 128.469 20.77 128.469 21.7927C128.466 22.8711 127.229 23.5953 125.902 23.5632L125.908 23.5681ZM131.897 14.0472L131.867 11.0127H135.853C137.1 11.0127 137.725 11.165 137.651 12.746L137.693 26.7475H133.757L133.725 15.6048V14.0448L131.897 14.0472Z" fill="#0D1819"/>
<path fill-rule="evenodd" clip-rule="evenodd" d="M2.61065 21.4463C0.995584 18.8463 1.21384e-05 15.9629 1.21384e-05 13.0422C-0.00265005 11.0781 0.432623 9.13887 1.27308 7.37055C2.93211 6.28148 4.76292 5.49079 6.68544 5.03305C12.0333 3.79497 19.8457 5.49733 20.0247 12.3984C20.1391 16.8208 14.566 20.1191 11.8532 14.6109C9.04658 20.2961 19.3066 24.1354 22.5331 16.9174C27.0083 6.90627 14.8581 -3.7722 3.22893 4.38677C4.95451 2.40655 7.23148 1.00722 9.7574 0.374624C12.2833 -0.25797 14.9387 -0.0938846 17.3707 0.845083C19.8028 1.78405 21.8965 3.45347 23.3738 5.6316C24.8511 7.80973 25.642 10.3935 25.6415 13.0397C25.6415 16.9013 23.9011 20.7047 21.2892 23.8556C17.9483 23.6328 15.2805 22.8912 13.6532 21.9663C7.45585 18.4427 11.168 11.1368 14.2094 11.9168C15.1989 12.1706 15.435 13.192 15.0614 13.8977C14.7815 14.4276 14.1559 14.7817 13.2492 14.5044C15.3365 17.1935 18.1065 14.0463 17.7402 11.5157C17.0185 6.53856 6.59659 9.0952 7.74308 18.5319C8.15202 21.8982 11.7838 26.1609 16.943 27.9413C15.8657 28.73 14.7211 29.4191 13.523 30.0002C2.83459 24.2283 2.73723 9.84053 13.2419 7.29008C4.502 4.75201 0.410169 13.5956 2.61309 21.4476" fill="#019DA9"/>
</g>
<defs>
<clipPath id="clip0_183_3606">
<rect width="138" height="30" fill="white"/>
</clipPath>
</defs>
</svg>
