<svg width="18" height="18" viewBox="0 0 18 18" fill="none" xmlns="http://www.w3.org/2000/svg">
<path d="M9.375 17.25C9.0625 17.25 8.797 17.1438 8.5785 16.9313C8.36 16.7188 8.2505 16.4563 8.25 16.1438C8.25 15.9938 8.27825 15.85 8.33475 15.7125C8.39125 15.575 8.4755 15.4563 8.5875 15.3563L9.375 14.625L10.1625 15.3563C10.275 15.4563 10.3595 15.575 10.416 15.7125C10.4725 15.85 10.5005 15.9938 10.5 16.1438C10.5 16.4563 10.3907 16.7188 10.1722 16.9313C9.95375 17.1438 9.688 17.25 9.375 17.25ZM6.7875 16.125L6 15.3375L8.2125 13.125L9 13.9125L6.7875 16.125ZM11.625 15L10.5 13.875L11.625 12.75L12.75 13.875L11.625 15ZM4.875 15L3.75 13.875L4.875 12.75L6 13.875L4.875 15ZM5.625 12C4.4875 12 3.51575 11.597 2.70975 10.791C1.90375 9.985 1.5005 9.013 1.5 7.875C1.5 6.8375 1.84375 5.93125 2.53125 5.15625C3.21875 4.38125 4.06875 3.925 5.08125 3.7875C5.48125 3.075 6.02825 2.5155 6.72225 2.109C7.41625 1.7025 8.1755 1.4995 9 1.5C10.125 1.5 11.1033 1.8595 11.9347 2.5785C12.7662 3.2975 13.2692 4.19425 13.4437 5.26875C14.3062 5.34375 15.0313 5.7 15.6188 6.3375C16.2063 6.975 16.5 7.7375 16.5 8.625C16.5 9.5625 16.172 10.3595 15.516 11.016C14.86 11.6725 14.063 12.0005 13.125 12H5.625Z" fill="#019DA9"/>
</svg>
