<svg width="18" height="18" viewBox="0 0 18 18" fill="none" xmlns="http://www.w3.org/2000/svg">
<path d="M14.25 3C14.6478 3 15.0294 3.15804 15.3107 3.43934C15.592 3.72064 15.75 4.10218 15.75 4.5V5.25H11.25C10.2554 5.25 9.30161 5.64509 8.59835 6.34835C7.89509 7.05161 7.5 8.00544 7.5 9C7.5 9.99456 7.89509 10.9484 8.59835 11.6517C9.30161 12.3549 10.2554 12.75 11.25 12.75H15.75V13.5C15.75 13.8978 15.592 14.2794 15.3107 14.5607C15.0294 14.842 14.6478 15 14.25 15H3.75C3.35218 15 2.97064 14.842 2.68934 14.5607C2.40804 14.2794 2.25 13.8978 2.25 13.5V4.5C2.25 4.10218 2.40804 3.72064 2.68934 3.43934C2.97064 3.15804 3.35218 3 3.75 3H14.25ZM15 6.75C15.3978 6.75 15.7794 6.90804 16.0607 7.18934C16.342 7.47064 16.5 7.85218 16.5 8.25V9.75C16.5 10.1478 16.342 10.5294 16.0607 10.8107C15.7794 11.092 15.3978 11.25 15 11.25H11.25C10.6533 11.25 10.081 11.0129 9.65901 10.591C9.23705 10.169 9 9.59674 9 9C9 8.40326 9.23705 7.83097 9.65901 7.40901C10.081 6.98705 10.6533 6.75 11.25 6.75H15ZM11.25 8.25C11.0511 8.25 10.8603 8.32902 10.7197 8.46967C10.579 8.61032 10.5 8.80109 10.5 9C10.5 9.19891 10.579 9.38968 10.7197 9.53033C10.8603 9.67098 11.0511 9.75 11.25 9.75C11.4489 9.75 11.6397 9.67098 11.7803 9.53033C11.921 9.38968 12 9.19891 12 9C12 8.80109 11.921 8.61032 11.7803 8.46967C11.6397 8.32902 11.4489 8.25 11.25 8.25Z" fill="#019DA9"/>
</svg>
