<svg width="17" height="16" viewBox="0 0 17 16" fill="none" xmlns="http://www.w3.org/2000/svg">
<g clip-path="url(#clip0_27_982)">
<path fill-rule="evenodd" clip-rule="evenodd" d="M11.8989 0.710181C12.1057 -0.232499 13.4471 -0.238247 13.6621 0.702134L13.6713 0.745819L13.6908 0.829741C13.8064 1.32274 14.0644 1.77087 14.4327 2.11835C14.8009 2.46584 15.2633 2.69735 15.7621 2.78408C16.746 2.95422 16.746 4.36709 15.7621 4.53838C15.2607 4.62556 14.7962 4.859 14.4271 5.20938C14.058 5.55976 13.8006 6.01144 13.6874 6.50767L13.6621 6.61918C13.4471 7.55956 12.1057 7.55381 11.8989 6.61113L11.8782 6.51571C11.7692 6.01759 11.5143 5.56325 11.146 5.21065C10.7777 4.85806 10.3127 4.62322 9.81034 4.53608C8.82874 4.36594 8.82874 2.95537 9.81034 2.78523C10.311 2.69832 10.7747 2.46465 11.1424 2.11384C11.5101 1.76304 11.7654 1.31091 11.8759 0.814796L11.8908 0.745819L11.8989 0.710181ZM9.61379 5.67535C7.71724 5.34541 7.41264 3.0048 8.7023 2.03108C7.78806 1.67911 6.80189 1.55503 5.82898 1.66958C4.85607 1.78413 3.92566 2.13386 3.11814 2.68855C2.31062 3.24325 1.65026 3.98623 1.19411 4.85332C0.737957 5.72041 0.499728 6.68554 0.5 7.66532C0.5 9.72083 1.5954 11.7867 2.81839 13.3065C3.37743 14.0112 4.01921 14.6461 4.72989 15.1976C5.04138 15.4309 5.35057 15.6264 5.64138 15.7643C5.92529 15.8988 6.23448 16 6.53448 16C6.83563 16 7.14483 15.8988 7.42874 15.7643C7.71954 15.6264 8.02874 15.4309 8.33908 15.1976C9.0504 14.6465 9.6926 14.0115 10.2517 13.3065C11.3172 11.9821 12.2851 10.2451 12.5161 8.46085C12.0922 8.41506 11.694 8.23482 11.3799 7.94647C11.0657 7.65812 10.852 7.27681 10.7701 6.8583L10.7494 6.76288C10.6895 6.48933 10.5494 6.23983 10.3472 6.04616C10.1449 5.85248 9.88964 5.7234 9.61379 5.67535ZM6.53448 9.67599C6.79864 9.67599 7.0602 9.62396 7.30425 9.52285C7.54829 9.42175 7.77004 9.27356 7.95682 9.08675C8.14361 8.89993 8.29177 8.67815 8.39286 8.43406C8.49395 8.18998 8.54598 7.92837 8.54598 7.66418C8.54598 7.39998 8.49395 7.13837 8.39286 6.89429C8.29177 6.6502 8.14361 6.42842 7.95682 6.2416C7.77004 6.05479 7.54829 5.9066 7.30425 5.8055C7.0602 5.70439 6.79864 5.65236 6.53448 5.65236C6.001 5.65236 5.48937 5.86432 5.11214 6.2416C4.73491 6.61889 4.52299 7.13061 4.52299 7.66418C4.52299 8.19774 4.73491 8.70946 5.11214 9.08675C5.48937 9.46403 6.001 9.67599 6.53448 9.67599Z" fill="white"/>
</g>
<defs>
<clipPath id="clip0_27_982">
<rect width="16" height="16" fill="white" transform="translate(0.5)"/>
</clipPath>
</defs>
</svg>
